<!DOCTYPE svg PUBLIC "-//W3C//DTD SVG 1.1//EN" "http://www.w3.org/Graphics/SVG/1.1/DTD/svg11.dtd">
<!-- Uploaded to: SVG Repo, www.svgrepo.com, Transformed by: SVG Repo Mixer Tools -->
<svg fill="#ffffff" width="800px" height="800px" viewBox="0 0 36 36" version="1.1" preserveAspectRatio="xMidYMid meet" xmlns="http://www.w3.org/2000/svg" xmlns:xlink="http://www.w3.org/1999/xlink">
<g id="SVGRepo_bgCarrier" stroke-width="0"/>
<g id="SVGRepo_tracerCarrier" stroke-linecap="round" stroke-linejoin="round"/>
<g id="SVGRepo_iconCarrier"> <title>timeline-line</title> <path d="M10,18c0-1.3-0.8-2.4-2-2.8v-3.4c1.2-0.4,2-1.5,2-2.8c0-1.7-1.3-3-3-3S4,7.3,4,9c0,1.3,0.8,2.4,2,2.8v3.4 c-1.2,0.4-2,1.5-2,2.8s0.8,2.4,2,2.8v3.4c-1.2,0.4-2,1.5-2,2.8c0,1.7,1.3,3,3,3s3-1.3,3-3c0-1.3-0.8-2.4-2-2.8v-3.4 C9.2,20.4,10,19.3,10,18z"/> <path d="M31,10H15c-0.6,0-1-0.4-1-1s0.4-1,1-1h16c0.6,0,1,0.4,1,1S31.6,10,31,10z"/> <path d="M31,19H15c-0.6,0-1-0.4-1-1s0.4-1,1-1h16c0.6,0,1,0.4,1,1S31.6,19,31,19z"/> <path d="M31,28H15c-0.6,0-1-0.4-1-1s0.4-1,1-1h16c0.6,0,1,0.4,1,1S31.6,28,31,28z"/> <rect width="36" height="36" fill-opacity="0"/> </g>
</svg>